<svg id="Digital" width="300" height="75" xmlns="http://www.w3.org/2000/svg" xmlns:xlink="http://www.w3.org/1999/xlink" viewBox="0 0 193.75 48.25"><defs><style>.cls-1{fill:#f48020;}.cls-2{fill:url(#Orange_Gradient_2_RGB_);}.cls-3{fill:url(#Orange_Gradient_1_RGB_);}.cls-4{fill:url(#Orange_Gradient_1_RGB_2);}.cls-5{fill:url(#Orange_Gradient_1_RGB_3);}.cls-6{fill:#6e6e6e;}</style><linearGradient id="Orange_Gradient_2_RGB_" x1="37.04" y1="21.77" x2="55.79" y2="21.77" gradientUnits="userSpaceOnUse"><stop offset="0.01" stop-color="#ee3d24"/><stop offset="0.25" stop-color="#ef5124"/><stop offset="0.45" stop-color="#f26f23"/><stop offset="1" stop-color="#f68a20"/></linearGradient><linearGradient id="Orange_Gradient_1_RGB_" x1="90.7" y1="11.65" x2="100.34" y2="32.7" gradientUnits="userSpaceOnUse"><stop offset="0" stop-color="#ef5124"/><stop offset="0.45" stop-color="#f26f23"/><stop offset="1" stop-color="#f68a20"/></linearGradient><linearGradient id="Orange_Gradient_1_RGB_2" x1="68.24" y1="41.49" x2="82.79" y2="10.7" gradientTransform="matrix(1, 0, 0.02, 1, -3.94, 0)" xlink:href="#Orange_Gradient_1_RGB_"/><linearGradient id="Orange_Gradient_1_RGB_3" x1="21.27" y1="31.43" x2="30.98" y2="10.55" xlink:href="#Orange_Gradient_1_RGB_"/></defs><title>Voya Investment Management</title><text></text><path class="cls-1" d="M44.39,10.38a11.39,11.39,0,1,0,11.4,11.4A11.4,11.4,0,0,0,44.39,10.38Zm0,18.95A7.39,7.39,0,0,1,37,21.77a7.36,7.36,0,1,1,14.71,0A7.39,7.39,0,0,1,44.39,29.32Z"/><path class="cls-2" d="M46.32,11.23c-5.23,0-9.28,4.72-9.28,10.54a7.36,7.36,0,1,1,14.71,0,7.36,7.36,0,1,1-14.71,0c0,5.82,4,10.54,9.28,10.54s9.47-4.72,9.47-10.54S51.55,11.23,46.32,11.23Z"/><path class="cls-1" d="M21.2,31.07,12.91,12.44c-1-2.23-4.11-2-5.16-1.55l9,20.14a3.57,3.57,0,0,0,3.53,2h2.67S22,32.94,21.2,31.07Z"/><path class="cls-3" d="M92.56,10.63h0c-.11,0-1,.12-1.73,1.8l-.92,2.08,7.4,16.62c1,2.24,4.11,2,5.16,1.56Z"/><path class="cls-1" d="M93.35,27.29l-.83-1.79a2.76,2.76,0,0,0-2.88-1.77H85.77s4.25-9.51,5-11.3,1.74-1.8,1.74-1.8H89.89a3.55,3.55,0,0,0-3.53,2l-9,20.08c1.05.49,4.15.71,5.16-1.56S84.33,27,84.33,27h7.18A3.38,3.38,0,0,1,93.35,27.29Z"/><path class="cls-4" d="M81,10.89c-1.06-.49-4.12-.69-5.13,1.56l-13,29c1.06.49,4.12.69,5.13-1.56Z"/><path class="cls-1" d="M69.39,31.07,61.1,12.44c-1-2.29-4.11-2-5.16-1.55l9,20.13a3.57,3.57,0,0,0,3.53,2h2.67S70.23,33,69.39,31.07Z"/><path class="cls-5" d="M32.86,10.89c-1.05-.49-4.16-.69-5.16,1.56L20.3,29l.9,2C22,32.8,22.81,33,22.93,33h0Z"/><path class="cls-6" d="M105.8,33a1.66,1.66,0,1,1,1.66-1.66A1.66,1.66,0,0,1,105.8,33Zm0-3.11a1.45,1.45,0,1,0,1.45,1.45A1.44,1.44,0,0,0,105.8,29.85Zm.46,2.4-.49-.75h-.36v.75h-.23v-1.9h.78a.57.57,0,0,1,.59.58.56.56,0,0,1-.49.56l.51.76Zm-.31-1.68h-.54v.7h.54a.35.35,0,0,0,0-.7Z"/><path class="cls-6" d="M125.32,23.09V17.76h1.14v5.33Z"/><path class="cls-6" d="M132,23.09l-2.54-3.48v3.48h-1.14V17.76h1.17L132,21.11V17.76h1.14v5.33Z"/><path class="cls-6" d="M136.44,23.09l-2.06-5.33h1.3l1.48,4.1,1.47-4.1h1.3l-2.05,5.33Z"/><path class="cls-6" d="M141.22,23.09V17.76H145v1h-2.64v1.13h2.58v1h-2.58v1.21H145v1Z"/><path class="cls-6" d="M146.32,22.34l.62-.86a2.34,2.34,0,0,0,1.69.72c.62,0,.93-.29.93-.59,0-.94-3.07-.3-3.07-2.3,0-.89.77-1.62,2-1.62a3,3,0,0,1,2.08.74l-.63.83a2.29,2.29,0,0,0-1.55-.58c-.49,0-.76.22-.76.54,0,.85,3.06.28,3.06,2.27,0,1-.7,1.71-2.13,1.71A3,3,0,0,1,146.32,22.34Z"/><path class="cls-6" d="M153.41,23.09V18.76h-1.56v-1h4.25v1h-1.55v4.33Z"/><path class="cls-6" d="M162.27,23.09V19.36l-1.5,3.73h-.5l-1.5-3.73v3.73h-1.14V17.76h1.59l1.3,3.22,1.3-3.22h1.6v5.33Z"/><path class="cls-6" d="M165.27,23.09V17.76H169v1h-2.64v1.13H169v1h-2.58v1.21H169v1Z"/><path class="cls-6" d="M174.42,23.09l-2.54-3.48v3.48h-1.14V17.76h1.17l2.47,3.35V17.76h1.14v5.33Z"/><path class="cls-6" d="M178.6,23.09V18.76H177v-1h4.25v1h-1.55v4.33Z"/><path class="cls-6" d="M130,33.09V29.36l-1.5,3.73H128l-1.5-3.73v3.73h-1.14V27.76h1.59l1.3,3.22,1.3-3.22h1.6v5.33Z"/><path class="cls-6" d="M136.64,33.09l-.33-.9H134l-.34.9h-1.3l2.06-5.33h1.42l2.05,5.33Zm-1.47-4.2-.83,2.29H136Z"/><path class="cls-6" d="M142.91,33.09l-2.54-3.48v3.48h-1.14V27.76h1.17l2.47,3.35V27.76H144v5.33Z"/><path class="cls-6" d="M149.54,33.09l-.33-.9h-2.29l-.34.9h-1.3l2.06-5.33h1.42l2.05,5.33Zm-1.47-4.2-.83,2.29h1.66Z"/><path class="cls-6" d="M151.61,30.43a2.7,2.7,0,0,1,2.84-2.76,2.49,2.49,0,0,1,2.21,1.19l-.94.51a1.51,1.51,0,0,0-1.26-.7,1.75,1.75,0,0,0,0,3.5,1.8,1.8,0,0,0,1.14-.41v-.64h-1.41v-1h2.54v2a3,3,0,0,1-2.27,1A2.72,2.72,0,0,1,151.61,30.43Z"/><path class="cls-6" d="M158.43,33.09V27.76h3.77v1h-2.64v1.13h2.58v1h-2.58v1.21h2.64v1Z"/><path class="cls-6" d="M168.53,33.09V29.36L167,33.09h-.5L165,29.36v3.73h-1.14V27.76h1.59l1.3,3.22,1.3-3.22h1.6v5.33Z"/><path class="cls-6" d="M171.53,33.09V27.76h3.77v1h-2.64v1.13h2.58v1h-2.58v1.21h2.64v1Z"/><path class="cls-6" d="M180.67,33.09l-2.54-3.48v3.48H177V27.76h1.17l2.47,3.35V27.76h1.14v5.33Z"/><path class="cls-6" d="M184.86,33.09V28.76H183.3v-1h4.25v1H186v4.33Z"/></svg>
